<mxfile host="app.diagrams.net" modified="2024-06-19T15:43:36.009Z" agent="Mozilla/5.0 (Windows NT 10.0; Win64; x64) AppleWebKit/537.36 (KHTML, like Gecko) Chrome/126.0.0.0 Safari/537.36" etag="enfUYaekRzdvTjJp5xKN" version="24.5.5" type="github">
  <diagram name="Page-1" id="WXMqCfQF9rJnC08O4d5a">
    <mxGraphModel dx="699" dy="1530" grid="1" gridSize="10" guides="1" tooltips="1" connect="1" arrows="1" fold="1" page="1" pageScale="1" pageWidth="850" pageHeight="1100" math="0" shadow="0">
      <root>
        <mxCell id="0" />
        <mxCell id="1" parent="0" />
        <mxCell id="G9D556FyMyx1McF1OM7r-12" style="edgeStyle=orthogonalEdgeStyle;rounded=0;orthogonalLoop=1;jettySize=auto;html=1;startArrow=classic;startFill=1;" edge="1" parent="1" source="G9D556FyMyx1McF1OM7r-2" target="G9D556FyMyx1McF1OM7r-7">
          <mxGeometry relative="1" as="geometry" />
        </mxCell>
        <mxCell id="G9D556FyMyx1McF1OM7r-15" value="1gbe" style="edgeLabel;html=1;align=center;verticalAlign=middle;resizable=0;points=[];" vertex="1" connectable="0" parent="G9D556FyMyx1McF1OM7r-12">
          <mxGeometry x="-0.1077" y="-2" relative="1" as="geometry">
            <mxPoint as="offset" />
          </mxGeometry>
        </mxCell>
        <mxCell id="G9D556FyMyx1McF1OM7r-2" value="PC" style="fontColor=#0066CC;verticalAlign=top;verticalLabelPosition=bottom;labelPosition=center;align=center;html=1;outlineConnect=0;fillColor=#CCCCCC;strokeColor=#6881B3;gradientColor=none;gradientDirection=north;strokeWidth=2;shape=mxgraph.networks.pc;" vertex="1" parent="1">
          <mxGeometry x="40" y="140" width="70" height="70" as="geometry" />
        </mxCell>
        <mxCell id="G9D556FyMyx1McF1OM7r-3" value="Firewall" style="fontColor=#0066CC;verticalAlign=top;verticalLabelPosition=bottom;labelPosition=center;align=center;html=1;outlineConnect=0;fillColor=#CCCCCC;strokeColor=#6881B3;gradientColor=none;gradientDirection=north;strokeWidth=2;shape=mxgraph.networks.firewall;" vertex="1" parent="1">
          <mxGeometry x="180" y="600" width="100" height="100" as="geometry" />
        </mxCell>
        <mxCell id="G9D556FyMyx1McF1OM7r-40" style="edgeStyle=orthogonalEdgeStyle;rounded=0;orthogonalLoop=1;jettySize=auto;html=1;startArrow=classic;startFill=1;" edge="1" parent="1" source="G9D556FyMyx1McF1OM7r-5" target="G9D556FyMyx1McF1OM7r-3">
          <mxGeometry relative="1" as="geometry" />
        </mxCell>
        <mxCell id="G9D556FyMyx1McF1OM7r-7" value="Spectrum Cable Modem (multifunction device)&lt;div&gt;&lt;br&gt;&lt;/div&gt;" style="fontColor=#0066CC;verticalAlign=top;verticalLabelPosition=bottom;labelPosition=center;align=center;html=1;outlineConnect=0;fillColor=#CCCCCC;strokeColor=#6881B3;gradientColor=none;gradientDirection=north;strokeWidth=2;shape=mxgraph.networks.wireless_modem;" vertex="1" parent="1">
          <mxGeometry x="240" y="132.5" width="100" height="85" as="geometry" />
        </mxCell>
        <mxCell id="G9D556FyMyx1McF1OM7r-8" value="Current" style="text;strokeColor=none;fillColor=none;html=1;fontSize=24;fontStyle=1;verticalAlign=middle;align=center;" vertex="1" parent="1">
          <mxGeometry x="230" y="30" width="100" height="40" as="geometry" />
        </mxCell>
        <mxCell id="G9D556FyMyx1McF1OM7r-14" style="edgeStyle=orthogonalEdgeStyle;rounded=0;orthogonalLoop=1;jettySize=auto;html=1;startArrow=classic;startFill=1;" edge="1" parent="1">
          <mxGeometry relative="1" as="geometry">
            <mxPoint x="475" y="200" as="sourcePoint" />
            <mxPoint x="345" y="200" as="targetPoint" />
          </mxGeometry>
        </mxCell>
        <mxCell id="G9D556FyMyx1McF1OM7r-17" value="1gbe" style="edgeLabel;html=1;align=center;verticalAlign=middle;resizable=0;points=[];" vertex="1" connectable="0" parent="G9D556FyMyx1McF1OM7r-14">
          <mxGeometry x="0.0154" y="-2" relative="1" as="geometry">
            <mxPoint as="offset" />
          </mxGeometry>
        </mxCell>
        <mxCell id="G9D556FyMyx1McF1OM7r-20" value="PC" style="fontColor=#0066CC;verticalAlign=top;verticalLabelPosition=bottom;labelPosition=center;align=center;html=1;outlineConnect=0;fillColor=#CCCCCC;strokeColor=#6881B3;gradientColor=none;gradientDirection=north;strokeWidth=2;shape=mxgraph.networks.pc;" vertex="1" parent="1">
          <mxGeometry x="50" y="440" width="70" height="70" as="geometry" />
        </mxCell>
        <mxCell id="G9D556FyMyx1McF1OM7r-25" value="Functional" style="text;strokeColor=none;fillColor=none;html=1;fontSize=24;fontStyle=1;verticalAlign=middle;align=center;" vertex="1" parent="1">
          <mxGeometry x="240" y="320" width="100" height="40" as="geometry" />
        </mxCell>
        <mxCell id="G9D556FyMyx1McF1OM7r-26" style="edgeStyle=orthogonalEdgeStyle;rounded=0;orthogonalLoop=1;jettySize=auto;html=1;startArrow=classic;startFill=1;entryX=0.95;entryY=0.05;entryDx=0;entryDy=0;entryPerimeter=0;" edge="1" parent="1" source="G9D556FyMyx1McF1OM7r-45" target="G9D556FyMyx1McF1OM7r-29">
          <mxGeometry relative="1" as="geometry">
            <mxPoint x="485" y="440" as="sourcePoint" />
            <mxPoint x="355" y="440" as="targetPoint" />
          </mxGeometry>
        </mxCell>
        <mxCell id="G9D556FyMyx1McF1OM7r-27" value="1gbe" style="edgeLabel;html=1;align=center;verticalAlign=middle;resizable=0;points=[];" vertex="1" connectable="0" parent="G9D556FyMyx1McF1OM7r-26">
          <mxGeometry x="0.0154" y="-2" relative="1" as="geometry">
            <mxPoint as="offset" />
          </mxGeometry>
        </mxCell>
        <mxCell id="G9D556FyMyx1McF1OM7r-42" style="edgeStyle=orthogonalEdgeStyle;rounded=0;orthogonalLoop=1;jettySize=auto;html=1;entryX=0;entryY=0.5;entryDx=0;entryDy=0;entryPerimeter=0;" edge="1" parent="1" source="G9D556FyMyx1McF1OM7r-28" target="G9D556FyMyx1McF1OM7r-29">
          <mxGeometry relative="1" as="geometry" />
        </mxCell>
        <mxCell id="G9D556FyMyx1McF1OM7r-28" value="Router" style="fontColor=#0066CC;verticalAlign=top;verticalLabelPosition=bottom;labelPosition=center;align=center;html=1;outlineConnect=0;fillColor=#CCCCCC;strokeColor=#6881B3;gradientColor=none;gradientDirection=north;strokeWidth=2;shape=mxgraph.networks.router;" vertex="1" parent="1">
          <mxGeometry x="180" y="530" width="100" height="30" as="geometry" />
        </mxCell>
        <mxCell id="G9D556FyMyx1McF1OM7r-29" value="Switch" style="fontColor=#0066CC;verticalAlign=top;verticalLabelPosition=bottom;labelPosition=center;align=center;html=1;outlineConnect=0;fillColor=#CCCCCC;strokeColor=#6881B3;gradientColor=none;gradientDirection=north;strokeWidth=2;shape=mxgraph.networks.switch;" vertex="1" parent="1">
          <mxGeometry x="270" y="480" width="100" height="30" as="geometry" />
        </mxCell>
        <mxCell id="G9D556FyMyx1McF1OM7r-43" style="edgeStyle=orthogonalEdgeStyle;rounded=0;orthogonalLoop=1;jettySize=auto;html=1;startArrow=classic;startFill=1;entryX=1;entryY=0.5;entryDx=0;entryDy=0;entryPerimeter=0;" edge="1" parent="1" source="G9D556FyMyx1McF1OM7r-30" target="G9D556FyMyx1McF1OM7r-29">
          <mxGeometry relative="1" as="geometry">
            <mxPoint x="370" y="480" as="targetPoint" />
          </mxGeometry>
        </mxCell>
        <mxCell id="G9D556FyMyx1McF1OM7r-31" style="edgeStyle=orthogonalEdgeStyle;rounded=0;orthogonalLoop=1;jettySize=auto;html=1;startArrow=classic;startFill=1;exitX=1;exitY=0.5;exitDx=0;exitDy=0;exitPerimeter=0;entryX=0.05;entryY=0.05;entryDx=0;entryDy=0;entryPerimeter=0;" edge="1" parent="1" source="G9D556FyMyx1McF1OM7r-20" target="G9D556FyMyx1McF1OM7r-29">
          <mxGeometry relative="1" as="geometry">
            <mxPoint x="180" y="470" as="sourcePoint" />
            <mxPoint x="330" y="463" as="targetPoint" />
          </mxGeometry>
        </mxCell>
        <mxCell id="G9D556FyMyx1McF1OM7r-32" value="1gbe" style="edgeLabel;html=1;align=center;verticalAlign=middle;resizable=0;points=[];" vertex="1" connectable="0" parent="G9D556FyMyx1McF1OM7r-31">
          <mxGeometry x="-0.1077" y="-2" relative="1" as="geometry">
            <mxPoint as="offset" />
          </mxGeometry>
        </mxCell>
        <mxCell id="G9D556FyMyx1McF1OM7r-30" value="Wireless access point" style="fontColor=#0066CC;verticalAlign=top;verticalLabelPosition=bottom;labelPosition=center;align=center;html=1;outlineConnect=0;fillColor=#CCCCCC;strokeColor=#6881B3;gradientColor=none;gradientDirection=north;strokeWidth=2;shape=mxgraph.networks.radio_tower;" vertex="1" parent="1">
          <mxGeometry x="410" y="465" width="55" height="100" as="geometry" />
        </mxCell>
        <mxCell id="G9D556FyMyx1McF1OM7r-36" style="edgeStyle=orthogonalEdgeStyle;rounded=0;orthogonalLoop=1;jettySize=auto;html=1;startArrow=classic;startFill=1;" edge="1" parent="1">
          <mxGeometry relative="1" as="geometry">
            <mxPoint x="410" y="250" as="sourcePoint" />
            <mxPoint x="289" y="217.5" as="targetPoint" />
            <Array as="points">
              <mxPoint x="289" y="250" />
            </Array>
          </mxGeometry>
        </mxCell>
        <mxCell id="G9D556FyMyx1McF1OM7r-37" value="coax cable" style="edgeLabel;html=1;align=center;verticalAlign=middle;resizable=0;points=[];" vertex="1" connectable="0" parent="G9D556FyMyx1McF1OM7r-36">
          <mxGeometry x="0.0154" y="-2" relative="1" as="geometry">
            <mxPoint as="offset" />
          </mxGeometry>
        </mxCell>
        <mxCell id="G9D556FyMyx1McF1OM7r-38" style="edgeStyle=orthogonalEdgeStyle;rounded=0;orthogonalLoop=1;jettySize=auto;html=1;startArrow=classic;startFill=1;" edge="1" parent="1" target="G9D556FyMyx1McF1OM7r-5">
          <mxGeometry relative="1" as="geometry">
            <mxPoint x="380" y="850" as="sourcePoint" />
            <mxPoint x="230" y="798" as="targetPoint" />
            <Array as="points">
              <mxPoint x="380" y="820" />
              <mxPoint x="380" y="820" />
            </Array>
          </mxGeometry>
        </mxCell>
        <mxCell id="G9D556FyMyx1McF1OM7r-39" value="coax cable" style="edgeLabel;html=1;align=center;verticalAlign=middle;resizable=0;points=[];" vertex="1" connectable="0" parent="G9D556FyMyx1McF1OM7r-38">
          <mxGeometry x="0.0154" y="-2" relative="1" as="geometry">
            <mxPoint as="offset" />
          </mxGeometry>
        </mxCell>
        <mxCell id="G9D556FyMyx1McF1OM7r-41" style="edgeStyle=orthogonalEdgeStyle;rounded=0;orthogonalLoop=1;jettySize=auto;html=1;entryX=0.5;entryY=1;entryDx=0;entryDy=0;entryPerimeter=0;startArrow=classic;startFill=1;" edge="1" parent="1" source="G9D556FyMyx1McF1OM7r-3" target="G9D556FyMyx1McF1OM7r-28">
          <mxGeometry relative="1" as="geometry" />
        </mxCell>
        <mxCell id="G9D556FyMyx1McF1OM7r-44" value="Synology 1821+" style="fontColor=#0066CC;verticalAlign=top;verticalLabelPosition=bottom;labelPosition=center;align=center;html=1;outlineConnect=0;fillColor=#CCCCCC;strokeColor=#6881B3;gradientColor=none;gradientDirection=north;strokeWidth=2;shape=mxgraph.networks.nas_filer;" vertex="1" parent="1">
          <mxGeometry x="500" y="167.5" width="100" height="35" as="geometry" />
        </mxCell>
        <mxCell id="G9D556FyMyx1McF1OM7r-45" value="Synology 1821+" style="fontColor=#0066CC;verticalAlign=top;verticalLabelPosition=bottom;labelPosition=center;align=center;html=1;outlineConnect=0;fillColor=#CCCCCC;strokeColor=#6881B3;gradientColor=none;gradientDirection=north;strokeWidth=2;shape=mxgraph.networks.nas_filer;" vertex="1" parent="1">
          <mxGeometry x="530" y="390" width="100" height="35" as="geometry" />
        </mxCell>
        <mxCell id="G9D556FyMyx1McF1OM7r-48" value="Laptop&lt;div&gt;&lt;br&gt;&lt;/div&gt;" style="fontColor=#0066CC;verticalAlign=top;verticalLabelPosition=bottom;labelPosition=center;align=center;html=1;outlineConnect=0;fillColor=#CCCCCC;strokeColor=#6881B3;gradientColor=none;gradientDirection=north;strokeWidth=2;shape=mxgraph.networks.laptop;" vertex="1" parent="1">
          <mxGeometry x="170" y="77.5" width="100" height="55" as="geometry" />
        </mxCell>
        <mxCell id="G9D556FyMyx1McF1OM7r-49" value="Laptop&lt;div&gt;&lt;br&gt;&lt;/div&gt;" style="fontColor=#0066CC;verticalAlign=top;verticalLabelPosition=bottom;labelPosition=center;align=center;html=1;outlineConnect=0;fillColor=#CCCCCC;strokeColor=#6881B3;gradientColor=none;gradientDirection=north;strokeWidth=2;shape=mxgraph.networks.laptop;" vertex="1" parent="1">
          <mxGeometry x="510" y="520" width="100" height="55" as="geometry" />
        </mxCell>
        <mxCell id="G9D556FyMyx1McF1OM7r-51" value="Spectrum cable modem functions" style="swimlane;whiteSpace=wrap;html=1;" vertex="1" parent="1">
          <mxGeometry x="160" y="430" width="340" height="300" as="geometry" />
        </mxCell>
        <mxCell id="G9D556FyMyx1McF1OM7r-5" value="Cable modem" style="fontColor=#0066CC;verticalAlign=top;verticalLabelPosition=bottom;labelPosition=center;align=center;html=1;outlineConnect=0;fillColor=#CCCCCC;strokeColor=#6881B3;gradientColor=none;gradientDirection=north;strokeWidth=2;shape=mxgraph.networks.modem;" vertex="1" parent="G9D556FyMyx1McF1OM7r-51">
          <mxGeometry x="170" y="205" width="100" height="30" as="geometry" />
        </mxCell>
      </root>
    </mxGraphModel>
  </diagram>
</mxfile>
